<svg xmlns="http://www.w3.org/2000/svg" version="1.1" xmlns:xlink="http://www.w3.org/1999/xlink" width="200" height="200"><svg xmlns="http://www.w3.org/2000/svg" version="1.1" xmlns:xlink="http://www.w3.org/1999/xlink" viewBox="0 0 200 200"><rect width="200" height="200" fill="url('#gradient')"></rect><defs><linearGradient id="SvgjsLinearGradient1001" gradientTransform="rotate(0 0.5 0.5)"><stop offset="0%" stop-color="#1b4739"></stop><stop offset="100%" stop-color="#1b4739"></stop></linearGradient></defs><g><g fill="#dda721" transform="matrix(1.9859054903031959,0,0,1.9859054903031959,28.49661239357276,111.68584309859017)" stroke="#dda721" stroke-width="0.2"><path d="M1.21-6.68L3.44-9.34L0.25-10.21L0.89-12.06L4.00-10.78L3.76-14.22L5.85-14.22L5.60-10.71L8.62-11.96L9.26-10.10L6.04-9.22L8.17-6.63L6.48-5.48L4.70-8.35L2.90-5.58L1.21-6.68ZM15.45-7.12L13.79-11.54L12.12-7.12L9.65-7.12L12.57-14.22L15-14.22L17.93-7.12L15.45-7.12ZM27.06 0L27.06 2.45L18.24 2.45L18.24 0L27.06 0ZM35.89 0L35.89 2.45L27.07 2.45L27.07 0L35.89 0ZM44.72 0L44.72 2.45L35.90 2.45L35.90 0L44.72 0ZM53.54 0L53.54 2.45L44.73 2.45L44.73 0L53.54 0ZM59.71-7.12L58.05-11.54L56.38-7.12L53.91-7.12L56.83-14.22L59.26-14.22L62.19-7.12L59.71-7.12ZM63.71-6.68L65.94-9.34L62.75-10.21L63.39-12.06L66.50-10.78L66.26-14.22L68.35-14.22L68.10-10.71L71.12-11.96L71.76-10.10L68.54-9.22L70.67-6.63L68.98-5.48L67.20-8.35L65.40-5.58L63.71-6.68Z"></path></g></g></svg><style>@media (prefers-color-scheme: light) { :root { filter: none; } }
@media (prefers-color-scheme: dark) { :root { filter: none; } }
</style></svg>